<svg width="1170" height="752" viewBox="0 0 1170 752" fill="none" xmlns="http://www.w3.org/2000/svg">
<path d="M1101.52 593.817C1079.13 657.166 1002.48 695.277 895.325 704.911C788.36 714.528 651.806 695.652 511.069 645.913C370.333 596.173 252.244 525.05 175.077 450.356C97.7705 375.527 62.0939 297.719 84.483 234.371C106.872 171.022 183.517 132.911 290.675 123.277C397.64 113.66 534.195 132.536 674.931 182.276C815.667 232.015 933.756 303.138 1010.92 377.832C1088.23 452.661 1123.91 530.469 1101.52 593.817Z" stroke="#F5F3EF" stroke-opacity="0.8" stroke-width="4"/>
<path d="M67.1956 247.574L85.4172 270.868L114.962 272.199L91.6673 290.421L90.3367 319.965L72.1151 296.671L42.5705 295.34L65.865 277.119L67.1956 247.574Z" fill="#F5F3EF"/>
</svg>
